<mxfile host="app.diagrams.net" modified="2022-10-27T10:12:07.118Z" agent="5.0 (Windows NT 10.0; Win64; x64) AppleWebKit/537.36 (KHTML, like Gecko) Chrome/106.0.0.0 Safari/537.36" etag="bOMlqwQOJgByoRGELS-p" version="20.5.1" type="github">
  <diagram id="lR18xKWvM3ddicbr-92a" name="Страница 1">
    <mxGraphModel dx="2062" dy="1132" grid="1" gridSize="10" guides="1" tooltips="1" connect="1" arrows="1" fold="1" page="1" pageScale="1" pageWidth="827" pageHeight="1169" math="0" shadow="0">
      <root>
        <mxCell id="0" />
        <mxCell id="1" parent="0" />
        <mxCell id="gXcMWQuHHtFPVThOfjyp-2" value="&lt;font face=&quot;Courier New&quot;&gt;$git pull origin main&lt;/font&gt;" style="shape=step;perimeter=stepPerimeter;whiteSpace=wrap;html=1;fixedSize=1;fillColor=#d5e8d4;strokeColor=#82b366;" vertex="1" parent="1">
          <mxGeometry x="50" y="140" width="200" height="70" as="geometry" />
        </mxCell>
        <mxCell id="gXcMWQuHHtFPVThOfjyp-3" value="&lt;font face=&quot;Courier New&quot;&gt;&amp;nbsp; download daily db_bckp&lt;/font&gt;" style="shape=step;perimeter=stepPerimeter;whiteSpace=wrap;html=1;fixedSize=1;fillColor=#dae8fc;strokeColor=#6c8ebf;textOpacity=70;" vertex="1" parent="1">
          <mxGeometry x="230" y="140" width="200" height="70" as="geometry" />
        </mxCell>
        <mxCell id="gXcMWQuHHtFPVThOfjyp-4" value="&lt;font face=&quot;Courier New&quot;&gt;&amp;nbsp;$mysql -u&amp;nbsp;&lt;/font&gt;&lt;span style=&quot;font-family: &amp;quot;Courier New&amp;quot;;&quot;&gt;${db_user}&lt;/span&gt;&lt;font face=&quot;Courier New&quot;&gt;&amp;nbsp;-p&amp;nbsp; ${dev_db_name} &amp;lt; db_bckp_file_name.sql&lt;/font&gt;" style="shape=step;perimeter=stepPerimeter;whiteSpace=wrap;html=1;fixedSize=1;fillColor=#dae8fc;strokeColor=#6c8ebf;textOpacity=70;" vertex="1" parent="1">
          <mxGeometry x="410" y="140" width="210" height="70" as="geometry" />
        </mxCell>
        <mxCell id="gXcMWQuHHtFPVThOfjyp-5" value="&lt;font face=&quot;Courier New&quot;&gt;&amp;nbsp; &amp;nbsp;$git commit -a -m&amp;nbsp; &amp;nbsp; &quot;${COMMIT_INFO_TEXT}&quot;&lt;/font&gt;" style="shape=step;perimeter=stepPerimeter;whiteSpace=wrap;html=1;fixedSize=1;fillColor=#d5e8d4;strokeColor=#82b366;" vertex="1" parent="1">
          <mxGeometry x="50" y="220" width="200" height="70" as="geometry" />
        </mxCell>
        <mxCell id="gXcMWQuHHtFPVThOfjyp-6" value="&lt;font face=&quot;Courier New&quot;&gt;&amp;nbsp; &amp;nbsp; &amp;nbsp;$git push origin&amp;nbsp; &amp;nbsp; &amp;nbsp; dev-user-branch&lt;/font&gt;" style="shape=step;perimeter=stepPerimeter;whiteSpace=wrap;html=1;fixedSize=1;fillColor=#d5e8d4;strokeColor=#82b366;" vertex="1" parent="1">
          <mxGeometry x="230" y="220" width="200" height="70" as="geometry" />
        </mxCell>
        <mxCell id="gXcMWQuHHtFPVThOfjyp-7" value="" style="verticalLabelPosition=bottom;sketch=0;aspect=fixed;html=1;verticalAlign=top;strokeColor=none;align=center;outlineConnect=0;shape=mxgraph.citrix.desktop;fontFamily=Courier New;" vertex="1" parent="1">
          <mxGeometry x="50" y="80" width="45.41" height="50" as="geometry" />
        </mxCell>
        <mxCell id="gXcMWQuHHtFPVThOfjyp-8" value="&lt;font style=&quot;font-size: 18px;&quot; face=&quot;Tahoma&quot;&gt;developer-wp on branch &lt;i&gt;dev-user-branch&lt;/i&gt;&lt;br&gt;&lt;/font&gt;" style="text;html=1;align=center;verticalAlign=middle;resizable=0;points=[];autosize=1;strokeColor=none;fillColor=none;fontFamily=Courier New;fontColor=#4D4D4D;" vertex="1" parent="1">
          <mxGeometry x="95.41" y="85" width="350" height="40" as="geometry" />
        </mxCell>
        <mxCell id="gXcMWQuHHtFPVThOfjyp-10" value="" style="endArrow=none;dashed=1;html=1;rounded=0;fontFamily=Tahoma;fontSize=18;" edge="1" parent="1">
          <mxGeometry width="50" height="50" relative="1" as="geometry">
            <mxPoint x="24" y="310" as="sourcePoint" />
            <mxPoint x="804" y="310" as="targetPoint" />
          </mxGeometry>
        </mxCell>
        <mxCell id="gXcMWQuHHtFPVThOfjyp-11" value="&lt;font face=&quot;Courier New&quot;&gt;$git pull origin main&lt;/font&gt;" style="shape=step;perimeter=stepPerimeter;whiteSpace=wrap;html=1;fixedSize=1;fillColor=#d5e8d4;strokeColor=#82b366;" vertex="1" parent="1">
          <mxGeometry x="50" y="440" width="200" height="70" as="geometry" />
        </mxCell>
        <mxCell id="gXcMWQuHHtFPVThOfjyp-12" value="&lt;font face=&quot;Courier New&quot;&gt;&amp;nbsp; &amp;nbsp; &amp;nbsp; check test-site&amp;nbsp; &amp;nbsp; &amp;nbsp; &amp;nbsp;work state&lt;/font&gt;" style="shape=step;perimeter=stepPerimeter;whiteSpace=wrap;html=1;fixedSize=1;fillColor=#f5f5f5;strokeColor=#666666;fontColor=#333333;" vertex="1" parent="1">
          <mxGeometry x="230" y="520" width="200" height="70" as="geometry" />
        </mxCell>
        <mxCell id="gXcMWQuHHtFPVThOfjyp-15" value="&lt;font face=&quot;Courier New&quot;&gt;&amp;nbsp; &amp;nbsp; &amp;nbsp; $git merge&amp;nbsp; &amp;nbsp; &amp;nbsp; &amp;nbsp; &amp;nbsp;dev-user-branch&lt;/font&gt;" style="shape=step;perimeter=stepPerimeter;whiteSpace=wrap;html=1;fixedSize=1;fillColor=#d5e8d4;strokeColor=#82b366;" vertex="1" parent="1">
          <mxGeometry x="50" y="520" width="200" height="70" as="geometry" />
        </mxCell>
        <mxCell id="gXcMWQuHHtFPVThOfjyp-16" value="" style="verticalLabelPosition=bottom;sketch=0;aspect=fixed;html=1;verticalAlign=top;strokeColor=none;align=center;outlineConnect=0;shape=mxgraph.citrix.desktop;fontFamily=Courier New;" vertex="1" parent="1">
          <mxGeometry x="50" y="340" width="45.41" height="50" as="geometry" />
        </mxCell>
        <mxCell id="gXcMWQuHHtFPVThOfjyp-17" value="&lt;font style=&quot;font-size: 18px;&quot; face=&quot;Tahoma&quot;&gt;test-wp on branch test&lt;br&gt;&lt;/font&gt;" style="text;html=1;align=center;verticalAlign=middle;resizable=0;points=[];autosize=1;strokeColor=none;fillColor=none;fontFamily=Courier New;fontColor=#4D4D4D;" vertex="1" parent="1">
          <mxGeometry x="95.41" y="345" width="200" height="40" as="geometry" />
        </mxCell>
        <mxCell id="gXcMWQuHHtFPVThOfjyp-18" value="&lt;font face=&quot;Courier New&quot;&gt;&amp;nbsp; &amp;nbsp; &amp;nbsp; $git checkout&amp;nbsp; &amp;nbsp; &amp;nbsp; &amp;nbsp; dev-user-branch&lt;/font&gt;" style="shape=step;perimeter=stepPerimeter;whiteSpace=wrap;html=1;fixedSize=1;fillColor=#d5e8d4;strokeColor=#82b366;" vertex="1" parent="1">
          <mxGeometry x="230" y="440" width="200" height="70" as="geometry" />
        </mxCell>
        <mxCell id="gXcMWQuHHtFPVThOfjyp-19" value="&lt;font face=&quot;Courier New&quot;&gt;&amp;nbsp; &amp;nbsp; &amp;nbsp;$git pull origin&amp;nbsp; &amp;nbsp; &amp;nbsp; &amp;nbsp;&lt;/font&gt;&lt;span style=&quot;font-family: &amp;quot;Courier New&amp;quot;;&quot;&gt;dev-user-branch&lt;/span&gt;" style="shape=step;perimeter=stepPerimeter;whiteSpace=wrap;html=1;fixedSize=1;fillColor=#d5e8d4;strokeColor=#82b366;" vertex="1" parent="1">
          <mxGeometry x="410" y="440" width="200" height="70" as="geometry" />
        </mxCell>
        <mxCell id="gXcMWQuHHtFPVThOfjyp-20" value="&lt;font face=&quot;Courier New&quot;&gt;&amp;nbsp; $git checkout test&lt;/font&gt;" style="shape=step;perimeter=stepPerimeter;whiteSpace=wrap;html=1;fixedSize=1;fillColor=#d5e8d4;strokeColor=#82b366;" vertex="1" parent="1">
          <mxGeometry x="590" y="440" width="200" height="70" as="geometry" />
        </mxCell>
        <mxCell id="gXcMWQuHHtFPVThOfjyp-24" value="" style="verticalLabelPosition=bottom;sketch=0;aspect=fixed;html=1;verticalAlign=top;strokeColor=none;align=center;outlineConnect=0;shape=mxgraph.citrix.desktop;fontFamily=Courier New;" vertex="1" parent="1">
          <mxGeometry x="50" y="840" width="45.41" height="50" as="geometry" />
        </mxCell>
        <mxCell id="gXcMWQuHHtFPVThOfjyp-25" value="&lt;font style=&quot;font-size: 18px;&quot; face=&quot;Tahoma&quot;&gt;prod-wp on branch main&lt;br&gt;&lt;/font&gt;" style="text;html=1;align=center;verticalAlign=middle;resizable=0;points=[];autosize=1;strokeColor=none;fillColor=none;fontFamily=Courier New;" vertex="1" parent="1">
          <mxGeometry x="85.41" y="845" width="220" height="40" as="geometry" />
        </mxCell>
        <mxCell id="gXcMWQuHHtFPVThOfjyp-29" value="" style="endArrow=none;dashed=1;html=1;rounded=0;fontFamily=Tahoma;fontSize=18;" edge="1" parent="1">
          <mxGeometry width="50" height="50" relative="1" as="geometry">
            <mxPoint x="24" y="810" as="sourcePoint" />
            <mxPoint x="804" y="810" as="targetPoint" />
          </mxGeometry>
        </mxCell>
        <mxCell id="gXcMWQuHHtFPVThOfjyp-30" value="&lt;font face=&quot;Courier New&quot;&gt;$git push origin test&lt;/font&gt;" style="shape=step;perimeter=stepPerimeter;whiteSpace=wrap;html=1;fixedSize=1;fillColor=#d5e8d4;strokeColor=#82b366;" vertex="1" parent="1">
          <mxGeometry x="430" y="520" width="200" height="30" as="geometry" />
        </mxCell>
        <mxCell id="gXcMWQuHHtFPVThOfjyp-32" value="&lt;font face=&quot;Courier New&quot;&gt;$git checkout main&lt;/font&gt;" style="shape=step;perimeter=stepPerimeter;whiteSpace=wrap;html=1;fixedSize=1;fillColor=#d5e8d4;strokeColor=#82b366;" vertex="1" parent="1">
          <mxGeometry x="50" y="640" width="200" height="70" as="geometry" />
        </mxCell>
        <mxCell id="gXcMWQuHHtFPVThOfjyp-40" value="&lt;font face=&quot;Courier New&quot;&gt;&amp;nbsp;$git pull origin main&lt;/font&gt;" style="shape=step;perimeter=stepPerimeter;whiteSpace=wrap;html=1;fixedSize=1;fillColor=#d5e8d4;strokeColor=#82b366;" vertex="1" parent="1">
          <mxGeometry x="230" y="640" width="200" height="70" as="geometry" />
        </mxCell>
        <mxCell id="gXcMWQuHHtFPVThOfjyp-41" value="&lt;font face=&quot;Courier New&quot;&gt;&amp;nbsp;$git merge test&lt;/font&gt;" style="shape=step;perimeter=stepPerimeter;whiteSpace=wrap;html=1;fixedSize=1;fillColor=#d5e8d4;strokeColor=#82b366;" vertex="1" parent="1">
          <mxGeometry x="410" y="640" width="200" height="70" as="geometry" />
        </mxCell>
        <mxCell id="gXcMWQuHHtFPVThOfjyp-42" value="&lt;font face=&quot;Courier New&quot;&gt;&amp;nbsp; $git push origin main&lt;/font&gt;" style="shape=step;perimeter=stepPerimeter;whiteSpace=wrap;html=1;fixedSize=1;fillColor=#d5e8d4;strokeColor=#82b366;" vertex="1" parent="1">
          <mxGeometry x="50" y="720" width="200" height="30" as="geometry" />
        </mxCell>
        <mxCell id="gXcMWQuHHtFPVThOfjyp-43" value="&lt;font face=&quot;Courier New&quot;&gt;&amp;nbsp; &amp;nbsp; &amp;nbsp; check test-site&amp;nbsp; &amp;nbsp; &amp;nbsp; &amp;nbsp;work state&lt;/font&gt;" style="shape=step;perimeter=stepPerimeter;whiteSpace=wrap;html=1;fixedSize=1;fillColor=#f5f5f5;strokeColor=#666666;fontColor=#333333;" vertex="1" parent="1">
          <mxGeometry x="590" y="640" width="200" height="70" as="geometry" />
        </mxCell>
        <mxCell id="gXcMWQuHHtFPVThOfjyp-44" value="&lt;font face=&quot;Courier New&quot;&gt;$git checkout test&lt;/font&gt;" style="shape=step;perimeter=stepPerimeter;whiteSpace=wrap;html=1;fixedSize=1;fillColor=#f8cecc;strokeColor=#b85450;" vertex="1" parent="1">
          <mxGeometry x="230" y="720" width="200" height="30" as="geometry" />
        </mxCell>
        <mxCell id="gXcMWQuHHtFPVThOfjyp-45" value="&lt;font style=&quot;font-size: 18px;&quot; face=&quot;Tahoma&quot;&gt;Merge dev branches in to test branch&lt;br&gt;&lt;/font&gt;" style="text;html=1;align=left;verticalAlign=middle;resizable=0;points=[];autosize=1;strokeColor=none;fillColor=none;fontFamily=Courier New;" vertex="1" parent="1">
          <mxGeometry x="50" y="400" width="320" height="40" as="geometry" />
        </mxCell>
        <mxCell id="gXcMWQuHHtFPVThOfjyp-46" value="&lt;font style=&quot;font-size: 18px;&quot; face=&quot;Tahoma&quot;&gt;Merge test branch in to main branch&lt;br&gt;&lt;/font&gt;" style="text;html=1;align=left;verticalAlign=middle;resizable=0;points=[];autosize=1;strokeColor=none;fillColor=none;fontFamily=Courier New;" vertex="1" parent="1">
          <mxGeometry x="50" y="600" width="310" height="40" as="geometry" />
        </mxCell>
        <mxCell id="gXcMWQuHHtFPVThOfjyp-48" value="&lt;font style=&quot;font-size: 18px;&quot; face=&quot;Tahoma&quot;&gt;Daily commit to origin main&lt;br&gt;&lt;/font&gt;" style="text;html=1;align=left;verticalAlign=middle;resizable=0;points=[];autosize=1;strokeColor=none;fillColor=none;fontFamily=Courier New;" vertex="1" parent="1">
          <mxGeometry x="50" y="900" width="240" height="40" as="geometry" />
        </mxCell>
        <mxCell id="gXcMWQuHHtFPVThOfjyp-49" value="&lt;font face=&quot;Courier New&quot;&gt;$git add -A&lt;/font&gt;" style="shape=step;perimeter=stepPerimeter;whiteSpace=wrap;html=1;fixedSize=1;fillColor=#d5e8d4;strokeColor=#82b366;" vertex="1" parent="1">
          <mxGeometry x="50" y="940" width="200" height="70" as="geometry" />
        </mxCell>
        <mxCell id="gXcMWQuHHtFPVThOfjyp-50" value="&lt;font face=&quot;Courier New&quot;&gt;&amp;nbsp; &amp;nbsp; &amp;nbsp; &amp;nbsp;$git commit&amp;nbsp; &amp;nbsp; &amp;nbsp; &amp;nbsp; &amp;nbsp; &amp;nbsp;--allow-empty -m&amp;nbsp; &amp;nbsp; &amp;nbsp;&quot;Daily commit ${DATE}&quot;&lt;/font&gt;" style="shape=step;perimeter=stepPerimeter;whiteSpace=wrap;html=1;fixedSize=1;fillColor=#d5e8d4;strokeColor=#82b366;" vertex="1" parent="1">
          <mxGeometry x="230" y="940" width="200" height="70" as="geometry" />
        </mxCell>
        <mxCell id="gXcMWQuHHtFPVThOfjyp-51" value="&lt;font face=&quot;Courier New&quot;&gt;&amp;nbsp; $git push origin main&lt;/font&gt;" style="shape=step;perimeter=stepPerimeter;whiteSpace=wrap;html=1;fixedSize=1;fillColor=#d5e8d4;strokeColor=#82b366;" vertex="1" parent="1">
          <mxGeometry x="410" y="940" width="200" height="70" as="geometry" />
        </mxCell>
        <mxCell id="gXcMWQuHHtFPVThOfjyp-52" value="&lt;font style=&quot;font-size: 18px;&quot; face=&quot;Tahoma&quot;&gt;Deploy to prod-wp&lt;br&gt;&lt;/font&gt;" style="text;html=1;align=left;verticalAlign=middle;resizable=0;points=[];autosize=1;strokeColor=none;fillColor=none;fontFamily=Courier New;" vertex="1" parent="1">
          <mxGeometry x="50" y="1030" width="170" height="40" as="geometry" />
        </mxCell>
        <mxCell id="gXcMWQuHHtFPVThOfjyp-53" value="&lt;font face=&quot;Courier New&quot;&gt;$git pull origin main&lt;/font&gt;" style="shape=step;perimeter=stepPerimeter;whiteSpace=wrap;html=1;fixedSize=1;fillColor=#d5e8d4;strokeColor=#82b366;" vertex="1" parent="1">
          <mxGeometry x="50" y="1070" width="200" height="70" as="geometry" />
        </mxCell>
        <mxCell id="gXcMWQuHHtFPVThOfjyp-56" value="&lt;font face=&quot;Courier New&quot;&gt;&amp;nbsp; &amp;nbsp; &amp;nbsp; check prod-site&amp;nbsp; &amp;nbsp; &amp;nbsp; &amp;nbsp;work state&lt;/font&gt;" style="shape=step;perimeter=stepPerimeter;whiteSpace=wrap;html=1;fixedSize=1;fillColor=#f5f5f5;strokeColor=#666666;fontColor=#333333;" vertex="1" parent="1">
          <mxGeometry x="230" y="1070" width="200" height="70" as="geometry" />
        </mxCell>
        <mxCell id="gXcMWQuHHtFPVThOfjyp-57" value="&lt;font face=&quot;Courier New&quot;&gt;$git checkout prev_commit_hash&lt;/font&gt;" style="shape=step;perimeter=stepPerimeter;whiteSpace=wrap;html=1;fixedSize=1;fillColor=#ffe6cc;strokeColor=#d79b00;" vertex="1" parent="1">
          <mxGeometry x="430" y="560" width="200" height="30" as="geometry" />
        </mxCell>
        <mxCell id="gXcMWQuHHtFPVThOfjyp-59" value="&lt;font face=&quot;Courier New&quot;&gt;$git checkout prev_commit_hash&lt;/font&gt;" style="shape=step;perimeter=stepPerimeter;whiteSpace=wrap;html=1;fixedSize=1;fillColor=#ffe6cc;strokeColor=#d79b00;" vertex="1" parent="1">
          <mxGeometry x="50" y="760" width="200" height="30" as="geometry" />
        </mxCell>
        <mxCell id="gXcMWQuHHtFPVThOfjyp-60" value="&lt;font face=&quot;Courier New&quot;&gt;work hard&lt;/font&gt;" style="shape=step;perimeter=stepPerimeter;whiteSpace=wrap;html=1;fixedSize=1;fillColor=#d5e8d4;strokeColor=#82b366;" vertex="1" parent="1">
          <mxGeometry x="600" y="140" width="190" height="70" as="geometry" />
        </mxCell>
        <mxCell id="gXcMWQuHHtFPVThOfjyp-61" value="&lt;font face=&quot;Courier New&quot;&gt;repair and repeat&lt;/font&gt;" style="shape=step;perimeter=stepPerimeter;whiteSpace=wrap;html=1;fixedSize=1;fillColor=#ffe6cc;strokeColor=#d79b00;" vertex="1" parent="1">
          <mxGeometry x="610" y="560" width="180" height="30" as="geometry" />
        </mxCell>
        <mxCell id="gXcMWQuHHtFPVThOfjyp-62" value="&lt;font face=&quot;Courier New&quot;&gt;repair and repeat&lt;/font&gt;" style="shape=step;perimeter=stepPerimeter;whiteSpace=wrap;html=1;fixedSize=1;fillColor=#ffe6cc;strokeColor=#d79b00;" vertex="1" parent="1">
          <mxGeometry x="230" y="760" width="200" height="30" as="geometry" />
        </mxCell>
        <mxCell id="gXcMWQuHHtFPVThOfjyp-63" value="&lt;font style=&quot;font-size: 24px;&quot; face=&quot;Tahoma&quot;&gt;&lt;span style=&quot;font-size: 24px;&quot;&gt;git@github.com:gerasimv/bitrix_it-murman.git&lt;/span&gt;&lt;br style=&quot;font-size: 24px;&quot;&gt;&lt;/font&gt;" style="text;html=1;align=left;verticalAlign=middle;resizable=0;points=[];autosize=1;strokeColor=none;fillColor=none;fontFamily=Courier New;fontColor=#4D4D4D;fontSize=24;" vertex="1" parent="1">
          <mxGeometry x="50" y="15" width="510" height="50" as="geometry" />
        </mxCell>
        <mxCell id="gXcMWQuHHtFPVThOfjyp-64" value="&lt;font style=&quot;&quot; face=&quot;Tahoma&quot;&gt;выполняется по необходимости&lt;br style=&quot;font-size: 10px;&quot;&gt;&lt;/font&gt;" style="text;html=1;align=center;verticalAlign=top;resizable=0;points=[];autosize=1;strokeColor=none;fillColor=none;fontFamily=Courier New;fontColor=#7EA6E0;fontSize=10;" vertex="1" parent="1">
          <mxGeometry x="328" y="120" width="170" height="30" as="geometry" />
        </mxCell>
        <mxCell id="gXcMWQuHHtFPVThOfjyp-65" value="&lt;font style=&quot;font-size: 14px;&quot;&gt;INTERNET&lt;/font&gt;" style="ellipse;shape=cloud;whiteSpace=wrap;html=1;fontFamily=Tahoma;fontSize=10;fontColor=#7EA6E0;" vertex="1" parent="1">
          <mxGeometry x="1080" y="150" width="190" height="80" as="geometry" />
        </mxCell>
        <mxCell id="gXcMWQuHHtFPVThOfjyp-66" value="" style="endArrow=none;dashed=1;html=1;rounded=0;fontFamily=Tahoma;fontSize=10;fontColor=#7EA6E0;" edge="1" parent="1">
          <mxGeometry width="50" height="50" relative="1" as="geometry">
            <mxPoint x="840" y="1142.5" as="sourcePoint" />
            <mxPoint x="840" y="10" as="targetPoint" />
          </mxGeometry>
        </mxCell>
        <mxCell id="gXcMWQuHHtFPVThOfjyp-69" value="" style="verticalLabelPosition=bottom;sketch=0;aspect=fixed;html=1;verticalAlign=top;strokeColor=none;align=center;outlineConnect=0;shape=mxgraph.citrix.dns_server;fontFamily=Tahoma;fontSize=10;fontColor=#7EA6E0;" vertex="1" parent="1">
          <mxGeometry x="880" y="41" width="57.89" height="70" as="geometry" />
        </mxCell>
        <mxCell id="gXcMWQuHHtFPVThOfjyp-71" value="&lt;p style=&quot;line-height: 0.8; font-size: 10px;&quot;&gt;&lt;font style=&quot;font-size: 10px;&quot;&gt;DNS-Основной&lt;/font&gt;&lt;/p&gt;&lt;p style=&quot;font-size: 10px;&quot;&gt;&lt;font style=&quot;font-size: 10px;&quot;&gt;На hfs.majordomo.ru&lt;/font&gt;&lt;/p&gt;" style="text;html=1;align=left;verticalAlign=middle;resizable=0;points=[];autosize=1;strokeColor=none;fillColor=none;fontSize=10;fontFamily=Tahoma;fontColor=#4D4D4D;" vertex="1" parent="1">
          <mxGeometry x="942.89" y="25" width="120" height="60" as="geometry" />
        </mxCell>
        <mxCell id="gXcMWQuHHtFPVThOfjyp-81" value="" style="group" vertex="1" connectable="0" parent="1">
          <mxGeometry x="1100" y="25" width="224.5" height="110" as="geometry" />
        </mxCell>
        <mxCell id="gXcMWQuHHtFPVThOfjyp-68" value="" style="verticalLabelPosition=bottom;sketch=0;aspect=fixed;html=1;verticalAlign=top;strokeColor=none;align=center;outlineConnect=0;shape=mxgraph.citrix.web_server;fontFamily=Tahoma;fontSize=10;fontColor=#7EA6E0;" vertex="1" parent="gXcMWQuHHtFPVThOfjyp-81">
          <mxGeometry y="18" width="59.5" height="70" as="geometry" />
        </mxCell>
        <mxCell id="gXcMWQuHHtFPVThOfjyp-72" value="&lt;p style=&quot;line-height: 0.8; font-size: 10px;&quot;&gt;&lt;font style=&quot;font-size: 10px;&quot;&gt;WEB-Основной для&amp;nbsp;&lt;/font&gt;&lt;/p&gt;&lt;span style=&quot;font-size: 10px;&quot;&gt;it-murman.ru/dev.itmurman.ru&lt;/span&gt;&lt;p style=&quot;font-size: 10px;&quot;&gt;На first-vds.ru&lt;/p&gt;&lt;p style=&quot;font-size: 10px;&quot;&gt;185.63.191.232&lt;/p&gt;" style="text;html=1;align=left;verticalAlign=middle;resizable=0;points=[];autosize=1;strokeColor=none;fillColor=none;fontSize=10;fontFamily=Tahoma;fontColor=#4D4D4D;" vertex="1" parent="gXcMWQuHHtFPVThOfjyp-81">
          <mxGeometry x="64.5" width="160" height="110" as="geometry" />
        </mxCell>
        <mxCell id="gXcMWQuHHtFPVThOfjyp-91" value="" style="curved=1;endArrow=classic;html=1;rounded=0;strokeColor=#666666;fontFamily=Tahoma;fontSize=14;fontColor=#4D4D4D;entryX=0.625;entryY=0.2;entryDx=0;entryDy=0;entryPerimeter=0;" edge="1" parent="gXcMWQuHHtFPVThOfjyp-81" target="gXcMWQuHHtFPVThOfjyp-65">
          <mxGeometry width="50" height="50" relative="1" as="geometry">
            <mxPoint x="28.621249999999918" y="75" as="sourcePoint" />
            <mxPoint x="195.87000000000012" y="146" as="targetPoint" />
            <Array as="points">
              <mxPoint x="29" y="105" />
              <mxPoint x="99" y="115" />
            </Array>
          </mxGeometry>
        </mxCell>
        <mxCell id="gXcMWQuHHtFPVThOfjyp-82" value="" style="group" vertex="1" connectable="0" parent="1">
          <mxGeometry x="1320" y="25" width="214.4999999999999" height="88" as="geometry" />
        </mxCell>
        <mxCell id="gXcMWQuHHtFPVThOfjyp-73" value="&lt;p style=&quot;line-height: 0.8; font-size: 10px;&quot;&gt;VCS для it-murman.ru&lt;/p&gt;&lt;p style=&quot;line-height: 0.8; font-size: 10px;&quot;&gt;&lt;span style=&quot;font-size: 10px;&quot;&gt;git@github.com:&lt;/span&gt;&lt;/p&gt;&lt;p style=&quot;line-height: 0.8; font-size: 10px;&quot;&gt;&lt;span style=&quot;font-size: 10px;&quot;&gt;gerasimv/bitrix_it-murman.git&lt;/span&gt;&lt;br style=&quot;font-size: 10px;&quot;&gt;&lt;/p&gt;" style="text;html=1;align=left;verticalAlign=middle;resizable=0;points=[];autosize=1;strokeColor=none;fillColor=none;fontSize=10;fontFamily=Tahoma;fontColor=#4D4D4D;" vertex="1" parent="gXcMWQuHHtFPVThOfjyp-82">
          <mxGeometry x="64.5" width="150" height="80" as="geometry" />
        </mxCell>
        <mxCell id="gXcMWQuHHtFPVThOfjyp-80" value="" style="group" vertex="1" connectable="0" parent="gXcMWQuHHtFPVThOfjyp-82">
          <mxGeometry y="18" width="61.61" height="70" as="geometry" />
        </mxCell>
        <mxCell id="gXcMWQuHHtFPVThOfjyp-78" value="" style="verticalLabelPosition=bottom;sketch=0;aspect=fixed;html=1;verticalAlign=top;strokeColor=none;align=center;outlineConnect=0;shape=mxgraph.citrix.license_server;fontFamily=Tahoma;fontSize=10;fontColor=#4D4D4D;" vertex="1" parent="gXcMWQuHHtFPVThOfjyp-80">
          <mxGeometry width="51.33013698630137" height="67.12328767123287" as="geometry" />
        </mxCell>
        <mxCell id="gXcMWQuHHtFPVThOfjyp-76" value="" style="shape=image;verticalLabelPosition=bottom;labelBackgroundColor=default;verticalAlign=top;aspect=fixed;imageAspect=0;image=data:image/png,iVBORw0KGgoAAAANSUhEUgAAAEAAAABACAYAAACqaXHeAAAAGXRFWHRTb2Z0d2FyZQBBZG9iZSBJbWFnZVJlYWR5ccllPAAAAyRpVFh0WE1MOmNvbS5hZG9iZS54bXAAAAAAADw/eHBhY2tldCBiZWdpbj0i77u/IiBpZD0iVzVNME1wQ2VoaUh6cmVTek5UY3prYzlkIj8+IDx4OnhtcG1ldGEgeG1sbnM6eD0iYWRvYmU6bnM6bWV0YS8iIHg6eG1wdGs9IkFkb2JlIFhNUCBDb3JlIDUuMy1jMDExIDY2LjE0NTY2MSwgMjAxMi8wMi8wNi0xNDo1NjoyNyAgICAgICAgIj4gPHJkZjpSREYgeG1sbnM6cmRmPSJodHRwOi8vd3d3LnczLm9yZy8xOTk5LzAyLzIyLXJkZi1zeW50YXgtbnMjIj4gPHJkZjpEZXNjcmlwdGlvbiByZGY6YWJvdXQ9IiIgeG1sbnM6eG1wPSJodHRwOi8vbnMuYWRvYmUuY29tL3hhcC8xLjAvIiB4bWxuczp4bXBNTT0iaHR0cDovL25zLmFkb2JlLmNvbS94YXAvMS4wL21tLyIgeG1sbnM6c3RSZWY9Imh0dHA6Ly9ucy5hZG9iZS5jb20veGFwLzEuMC9zVHlwZS9SZXNvdXJjZVJlZiMiIHhtcDpDcmVhdG9yVG9vbD0iQWRvYmUgUGhvdG9zaG9wIENTNiAoTWFjaW50b3NoKSIgeG1wTU06SW5zdGFuY2VJRD0ieG1wLmlpZDpFNTE3OEEyRTk5QTAxMUUyOUExNUJDMTA0NkE4OTA0RCIgeG1wTU06RG9jdW1lbnRJRD0ieG1wLmRpZDpFNTE3OEEyRjk5QTAxMUUyOUExNUJDMTA0NkE4OTA0RCI+IDx4bXBNTTpEZXJpdmVkRnJvbSBzdFJlZjppbnN0YW5jZUlEPSJ4bXAuaWlkOkU1MTc4QTJDOTlBMDExRTI5QTE1QkMxMDQ2QTg5MDREIiBzdFJlZjpkb2N1bWVudElEPSJ4bXAuZGlkOkU1MTc4QTJEOTlBMDExRTI5QTE1QkMxMDQ2QTg5MDREIi8+IDwvcmRmOkRlc2NyaXB0aW9uPiA8L3JkZjpSREY+IDwveDp4bXBtZXRhPiA8P3hwYWNrZXQgZW5kPSJyIj8+FYrpWAAABrNJREFUeNrkW2lsVFUUvjMWirYUkS5BXApUa2vd6gL+wAWjoP5RiW2EUBajAiqSuPADQ0w1UUQTrcFAUUSJEKriEuMWFKuJIElFSS24YNpQK6WoBbuAktbva880M8O8vnfevJm+CSf5cme599xzvnfffffce17AJFjycnLzUVwDXAgUAucBY4BMIEOqdQIdwJ/Az4J64OvWtoONibQvkACHgyiuBe4CbgLOjVNlE/AZsAmoBSE9viQAjueieBCYC5yVoAvWDKwHqkBEmy8IgON09lHgXmCESY4cBaqBlSCieUgIgOPDUCwBngBOM0MjXdL/CyDiv6QRAOcvR7EBKDL+kD3AbJBQl1AC4DjrLwaeBYYbf8m/ciu+BCJ6PScAzp+K4nXgTuNveQuYAxK6PSMAzo9C8TFwtUkN2Q7cDBIOx02AOP8FUGpSSzgf3GBHQsDGec7unwOTTWrKDiGhS02ATHjvALeb1JZ3gRlWE+MpVq0yMzIekRk/1YWP6o7Ors5vHI8AXH1Odl8BaTbKrwd4j10MTAduS8JqkKvA94BPgN0A56htNm2OMyDDKNhuSwCcT5dIrMBG6S4oLI1qezqKBcBjwGiPHW8HVgCr0W97VL/fobjMpv2vQAnaHgv/MdYVXurAeSNPhggRw56BQatRVgL3A0H5+xDwI8Dw9g/5Hlq+clmdDYwF8iV0zpb/GP2tApZHOx4m2xwQUCC+VVqOABg+AUUDkO6AgHkwaL2DJXORxPVNylUnw+gpXObaLXFRlxHoaw7U8uoXQ99vViNgqUPnKQfsKojhdW7GuxDW5JUtIuni432hH4JhLJ7Dq6qwcZiPZnpNXDJPfI0kQEJbjVM5PiIgW3nhlkQQILH9LGWnV/iIAK0ts8TngREwDchVKrnKRwRobckVnwcIKFcq4ONrkY8IWBT2SHUq5eEE3Khs/CRm6Z1+8V5sqVQ26/M5gHuhSJ79TqUFmIhOj/ppwQ8/Rshqb5yiWXFQFhsaWeU352UU0KaXlc2mBI1+Y3OzjyO/Gm2kSAIKFQ2awfQ+v3oP23gL/K5oUhh0GPiEZG8KxP97FHULgsqwtTUFCDioqHsGCRipaHA8BQjQrAcyg4roj5KVAgSMUtRNDyqVj0wBAlQ2koBuRf3xKUBAvqJuN1eCrYpAiHNAltNjpyFYDfL47oix38wdmDA5AvYr+kjzWRgcLVcqnKfsJwGNyk5u9TEBtyjrNwaVgRClTPKA/Db8aVOZslkDG2nD2vEuOkqGlLmYpHcGJLlJu8LjtvJFgx06Jvnq8xC33gUBeUE4waWjduua5wdVPrr6VS6cr6PvoXv5Ixed3g3mH/fB1V9OW1w07fM5IEouUEZR4bIWWJzsTRJ55r8I3ONSRRFs3hsIU8hkgkkulf0CPAx8qElQcuk4beYp9Epgoks138LOvqSPgfyAzIwMZlnFSobgIegc4H3gH6AkxmKDub9Mjb0DeoYDrZ1dne0eO14AvfPx8RXgAYaycahbBvt+GLgFpIM0md3PjqrMTMxpYKxB6p1v+s/n7bbSuMCqldmZyc+fRh9ND+IsAxrmG3C3qtj0J1uP84hLrnwnwJbjEQRIxzw0XB2jER93C9Bog9TjsRgzLpzuJr0BzHV6e8gwf9XoziqdCv1YE/oSTQBHwfem/3w+5syPxuukLtfdO0zk+WIs+YuPKLQ7ohzyWTIix3joPPMTLg1d/Yg5gIL7ogf32U/4WGGhYDr+34J6bUALPpPA62w6XYMOP9BaCv3HoD/PeJubODN6U/eEq4cKTIurttpBAZ4L+87TmKdtOt0ah8FbPXS+WnyLEKskqUy5FaweM5dA2e6w+pNkZuajhfMD3/zYBfDKb3Y6+cWwgytOL7bh98nQ73BEgHReIvd4Roy/a6Cs3CRYJOnq7zjV8HWcybC33mpLLKZIA84FPRYhcSokUNL2Civnjd0MjoZbUCy0+PtNkDDD5wQsFB8sxWm2+GJZd8eSt4HnZXnZ66Nb4CHYYxuxat4XmI1inbHeczskq77DMrK4z8AgK3+Q/L5EEMBn/PzQos0zAsQgvg5XY3TpNKOTSAD3NsrQX63TBqq9PVHM9NgvfXi/06ZSjfNqAoQEHj9Pled+pw8cpw2co6aKbSoJxDlJnYniKdP/sqSVrrEw7IBL/TnG+rSXEy7fYVoG/S1uffDkzVEYypB1qewJRCdb5rp9yxN6mQDZFmOS2wisCIXo8Yin7w7LiKiQEcFYfhOMnBmnzo1CLIO09Qyt47niJxDQ29trTmY56Qn4X4ABAFR7IoDmVT5NAAAAAElFTkSuQmCC;" vertex="1" parent="gXcMWQuHHtFPVThOfjyp-80">
          <mxGeometry x="29.698930708661432" y="38.46164383561645" width="31.53835616438356" height="31.53835616438356" as="geometry" />
        </mxCell>
        <mxCell id="gXcMWQuHHtFPVThOfjyp-83" value="" style="endArrow=none;html=1;rounded=0;fontFamily=Tahoma;fontSize=14;fontColor=#4D4D4D;strokeColor=#666666;" edge="1" parent="1">
          <mxGeometry width="50" height="50" relative="1" as="geometry">
            <mxPoint x="1480" y="269" as="sourcePoint" />
            <mxPoint x="880" y="269" as="targetPoint" />
          </mxGeometry>
        </mxCell>
        <mxCell id="gXcMWQuHHtFPVThOfjyp-84" value="" style="verticalLabelPosition=bottom;sketch=0;aspect=fixed;html=1;verticalAlign=top;strokeColor=none;align=center;outlineConnect=0;shape=mxgraph.citrix.firewall;fontFamily=Tahoma;fontSize=14;fontColor=#4D4D4D;" vertex="1" parent="1">
          <mxGeometry x="880" y="236" width="43.55" height="54" as="geometry" />
        </mxCell>
        <mxCell id="gXcMWQuHHtFPVThOfjyp-86" value="" style="group" vertex="1" connectable="0" parent="1">
          <mxGeometry x="880" y="344" width="184.4999999999999" height="110" as="geometry" />
        </mxCell>
        <mxCell id="gXcMWQuHHtFPVThOfjyp-87" value="" style="verticalLabelPosition=bottom;sketch=0;aspect=fixed;html=1;verticalAlign=top;strokeColor=none;align=center;outlineConnect=0;shape=mxgraph.citrix.web_server;fontFamily=Tahoma;fontSize=10;fontColor=#7EA6E0;" vertex="1" parent="gXcMWQuHHtFPVThOfjyp-86">
          <mxGeometry y="18" width="59.5" height="70" as="geometry" />
        </mxCell>
        <mxCell id="gXcMWQuHHtFPVThOfjyp-88" value="&lt;p style=&quot;line-height: 0.8; font-size: 10px;&quot;&gt;&lt;font style=&quot;font-size: 10px;&quot;&gt;WEB-Разработки&amp;nbsp;&lt;/font&gt;&lt;/p&gt;&lt;span style=&quot;font-size: 10px;&quot;&gt;devloc.it-murman.ru&lt;br&gt;&lt;/span&gt;&lt;p style=&quot;font-size: 10px;&quot;&gt;192.168.0.42&lt;/p&gt;" style="text;html=1;align=left;verticalAlign=middle;resizable=0;points=[];autosize=1;strokeColor=none;fillColor=none;fontSize=10;fontFamily=Tahoma;fontColor=#4D4D4D;" vertex="1" parent="gXcMWQuHHtFPVThOfjyp-86">
          <mxGeometry x="64.5" y="10" width="110" height="90" as="geometry" />
        </mxCell>
        <mxCell id="gXcMWQuHHtFPVThOfjyp-90" value="" style="curved=1;endArrow=classic;html=1;rounded=0;strokeColor=#666666;fontFamily=Tahoma;fontSize=14;fontColor=#4D4D4D;entryX=0.25;entryY=0.25;entryDx=0;entryDy=0;entryPerimeter=0;" edge="1" parent="1" source="gXcMWQuHHtFPVThOfjyp-69" target="gXcMWQuHHtFPVThOfjyp-65">
          <mxGeometry width="50" height="50" relative="1" as="geometry">
            <mxPoint x="850" y="460" as="sourcePoint" />
            <mxPoint x="900" y="410" as="targetPoint" />
            <Array as="points">
              <mxPoint x="910" y="150" />
              <mxPoint x="1100" y="150" />
            </Array>
          </mxGeometry>
        </mxCell>
        <mxCell id="gXcMWQuHHtFPVThOfjyp-92" value="" style="curved=1;endArrow=classic;html=1;rounded=0;strokeColor=#666666;fontFamily=Tahoma;fontSize=14;fontColor=#4D4D4D;entryX=0.88;entryY=0.25;entryDx=0;entryDy=0;entryPerimeter=0;" edge="1" parent="1" target="gXcMWQuHHtFPVThOfjyp-65">
          <mxGeometry width="50" height="50" relative="1" as="geometry">
            <mxPoint x="1350.0012500000003" y="102" as="sourcePoint" />
            <mxPoint x="1420.13" y="168" as="targetPoint" />
            <Array as="points">
              <mxPoint x="1350.38" y="132" />
              <mxPoint x="1247" y="150" />
            </Array>
          </mxGeometry>
        </mxCell>
        <mxCell id="gXcMWQuHHtFPVThOfjyp-93" value="" style="shape=flexArrow;endArrow=classic;startArrow=classic;html=1;rounded=0;strokeColor=#666666;fontFamily=Tahoma;fontSize=14;fontColor=#4D4D4D;endWidth=34.16666666666667;endSize=5.391666666666667;startWidth=34.16666666666667;startSize=5.391666666666667;width=24.166666666666668;" edge="1" parent="1">
          <mxGeometry width="100" height="100" relative="1" as="geometry">
            <mxPoint x="1180" y="314" as="sourcePoint" />
            <mxPoint x="1180" y="224" as="targetPoint" />
          </mxGeometry>
        </mxCell>
      </root>
    </mxGraphModel>
  </diagram>
</mxfile>
